<mxfile host="Electron" modified="2024-03-22T07:34:09.736Z" agent="Mozilla/5.0 (Windows NT 10.0; Win64; x64) AppleWebKit/537.36 (KHTML, like Gecko) draw.io/23.1.5 Chrome/120.0.6099.109 Electron/28.1.0 Safari/537.36" etag="620MaCfbozB1YRtSFqNp" version="23.1.5" type="device">
  <diagram name="Страница — 1" id="tED2SzPRO07X7DksLbKd">
    <mxGraphModel dx="1062" dy="716" grid="1" gridSize="10" guides="1" tooltips="1" connect="1" arrows="1" fold="1" page="1" pageScale="1" pageWidth="827" pageHeight="1169" math="0" shadow="0">
      <root>
        <mxCell id="0" />
        <mxCell id="1" parent="0" />
        <mxCell id="Bc5oG1DKQoHi3MqYJBwv-1" value="GUI" style="shape=module;align=left;spacingLeft=20;align=center;verticalAlign=top;whiteSpace=wrap;html=1;" vertex="1" parent="1">
          <mxGeometry x="110" y="310" width="100" height="50" as="geometry" />
        </mxCell>
        <mxCell id="Bc5oG1DKQoHi3MqYJBwv-2" value="&lt;i&gt;Валидатор GUI&lt;/i&gt;" style="shape=module;align=left;spacingLeft=20;align=center;verticalAlign=top;whiteSpace=wrap;html=1;" vertex="1" parent="1">
          <mxGeometry x="280" y="180" width="100" height="50" as="geometry" />
        </mxCell>
        <mxCell id="Bc5oG1DKQoHi3MqYJBwv-3" value="" style="shape=providedRequiredInterface;html=1;verticalLabelPosition=bottom;sketch=0;direction=west;rotation=-45;" vertex="1" parent="1">
          <mxGeometry x="250" y="260" width="20" height="20" as="geometry" />
        </mxCell>
        <mxCell id="Bc5oG1DKQoHi3MqYJBwv-4" value="" style="endArrow=none;html=1;rounded=0;exitX=1;exitY=0;exitDx=0;exitDy=0;entryX=1;entryY=0.5;entryDx=0;entryDy=0;entryPerimeter=0;" edge="1" parent="1" source="Bc5oG1DKQoHi3MqYJBwv-1" target="Bc5oG1DKQoHi3MqYJBwv-3">
          <mxGeometry width="50" height="50" relative="1" as="geometry">
            <mxPoint x="390" y="450" as="sourcePoint" />
            <mxPoint x="440" y="400" as="targetPoint" />
          </mxGeometry>
        </mxCell>
        <mxCell id="Bc5oG1DKQoHi3MqYJBwv-5" value="" style="endArrow=none;html=1;rounded=0;exitX=0;exitY=0.5;exitDx=0;exitDy=0;exitPerimeter=0;" edge="1" parent="1" source="Bc5oG1DKQoHi3MqYJBwv-3" target="Bc5oG1DKQoHi3MqYJBwv-2">
          <mxGeometry width="50" height="50" relative="1" as="geometry">
            <mxPoint x="220" y="320" as="sourcePoint" />
            <mxPoint x="263" y="267" as="targetPoint" />
          </mxGeometry>
        </mxCell>
        <mxCell id="Bc5oG1DKQoHi3MqYJBwv-13" value="*" style="edgeLabel;html=1;align=center;verticalAlign=middle;resizable=0;points=[];" vertex="1" connectable="0" parent="Bc5oG1DKQoHi3MqYJBwv-5">
          <mxGeometry x="0.5253" relative="1" as="geometry">
            <mxPoint x="16" as="offset" />
          </mxGeometry>
        </mxCell>
        <mxCell id="Bc5oG1DKQoHi3MqYJBwv-7" value="Обработчик команд" style="shape=module;align=left;spacingLeft=20;align=center;verticalAlign=top;whiteSpace=wrap;html=1;" vertex="1" parent="1">
          <mxGeometry x="280" y="450" width="100" height="50" as="geometry" />
        </mxCell>
        <mxCell id="Bc5oG1DKQoHi3MqYJBwv-9" value="" style="endArrow=none;html=1;rounded=0;exitX=1;exitY=1;exitDx=0;exitDy=0;entryX=0;entryY=0.5;entryDx=0;entryDy=0;entryPerimeter=0;" edge="1" parent="1" target="Bc5oG1DKQoHi3MqYJBwv-12" source="Bc5oG1DKQoHi3MqYJBwv-1">
          <mxGeometry width="50" height="50" relative="1" as="geometry">
            <mxPoint x="210" y="650" as="sourcePoint" />
            <mxPoint x="252.92893218813447" y="397.07106781186553" as="targetPoint" />
          </mxGeometry>
        </mxCell>
        <mxCell id="Bc5oG1DKQoHi3MqYJBwv-10" value="" style="endArrow=none;html=1;rounded=0;exitX=1;exitY=0.5;exitDx=0;exitDy=0;exitPerimeter=0;entryX=0.25;entryY=0;entryDx=0;entryDy=0;" edge="1" parent="1" source="Bc5oG1DKQoHi3MqYJBwv-12" target="Bc5oG1DKQoHi3MqYJBwv-7">
          <mxGeometry width="50" height="50" relative="1" as="geometry">
            <mxPoint x="267.07106781186553" y="382.92893218813447" as="sourcePoint" />
            <mxPoint x="263" y="607" as="targetPoint" />
          </mxGeometry>
        </mxCell>
        <mxCell id="Bc5oG1DKQoHi3MqYJBwv-12" value="" style="shape=providedRequiredInterface;html=1;verticalLabelPosition=bottom;sketch=0;direction=west;rotation=-135;" vertex="1" parent="1">
          <mxGeometry x="240" y="390" width="20" height="20" as="geometry" />
        </mxCell>
        <mxCell id="Bc5oG1DKQoHi3MqYJBwv-14" value="&lt;i&gt;Обработчик команды&lt;/i&gt;" style="shape=module;align=left;spacingLeft=20;align=center;verticalAlign=top;whiteSpace=wrap;html=1;" vertex="1" parent="1">
          <mxGeometry x="510" y="450" width="100" height="50" as="geometry" />
        </mxCell>
        <mxCell id="Bc5oG1DKQoHi3MqYJBwv-15" value="" style="shape=providedRequiredInterface;html=1;verticalLabelPosition=bottom;sketch=0;direction=west;" vertex="1" parent="1">
          <mxGeometry x="440" y="465" width="20" height="20" as="geometry" />
        </mxCell>
        <mxCell id="Bc5oG1DKQoHi3MqYJBwv-16" value="" style="endArrow=none;html=1;rounded=0;exitX=1;exitY=0.5;exitDx=0;exitDy=0;entryX=1;entryY=0.5;entryDx=0;entryDy=0;entryPerimeter=0;" edge="1" parent="1" source="Bc5oG1DKQoHi3MqYJBwv-7" target="Bc5oG1DKQoHi3MqYJBwv-15">
          <mxGeometry width="50" height="50" relative="1" as="geometry">
            <mxPoint x="267" y="417" as="sourcePoint" />
            <mxPoint x="315" y="460" as="targetPoint" />
          </mxGeometry>
        </mxCell>
        <mxCell id="Bc5oG1DKQoHi3MqYJBwv-17" value="" style="endArrow=none;html=1;rounded=0;exitX=0;exitY=0.5;exitDx=0;exitDy=0;entryX=0.103;entryY=0.496;entryDx=0;entryDy=0;entryPerimeter=0;exitPerimeter=0;" edge="1" parent="1" source="Bc5oG1DKQoHi3MqYJBwv-15" target="Bc5oG1DKQoHi3MqYJBwv-14">
          <mxGeometry width="50" height="50" relative="1" as="geometry">
            <mxPoint x="390" y="485" as="sourcePoint" />
            <mxPoint x="450" y="485" as="targetPoint" />
          </mxGeometry>
        </mxCell>
        <mxCell id="Bc5oG1DKQoHi3MqYJBwv-18" value="*" style="edgeLabel;html=1;align=center;verticalAlign=middle;resizable=0;points=[];" vertex="1" connectable="0" parent="Bc5oG1DKQoHi3MqYJBwv-17">
          <mxGeometry x="0.2111" relative="1" as="geometry">
            <mxPoint x="4" y="10" as="offset" />
          </mxGeometry>
        </mxCell>
        <mxCell id="Bc5oG1DKQoHi3MqYJBwv-19" value="&lt;i&gt;Вадидатор команды&lt;/i&gt;" style="shape=module;align=left;spacingLeft=20;align=center;verticalAlign=top;whiteSpace=wrap;html=1;" vertex="1" parent="1">
          <mxGeometry x="510" y="310" width="100" height="50" as="geometry" />
        </mxCell>
        <mxCell id="Bc5oG1DKQoHi3MqYJBwv-21" value="" style="shape=providedRequiredInterface;html=1;verticalLabelPosition=bottom;sketch=0;direction=south;" vertex="1" parent="1">
          <mxGeometry x="550" y="400" width="20" height="20" as="geometry" />
        </mxCell>
        <mxCell id="Bc5oG1DKQoHi3MqYJBwv-22" value="" style="endArrow=none;html=1;rounded=0;exitX=0;exitY=0.5;exitDx=0;exitDy=0;entryX=0.5;entryY=1;entryDx=0;entryDy=0;exitPerimeter=0;" edge="1" parent="1" source="Bc5oG1DKQoHi3MqYJBwv-21" target="Bc5oG1DKQoHi3MqYJBwv-19">
          <mxGeometry width="50" height="50" relative="1" as="geometry">
            <mxPoint x="390" y="485" as="sourcePoint" />
            <mxPoint x="450" y="485" as="targetPoint" />
          </mxGeometry>
        </mxCell>
        <mxCell id="Bc5oG1DKQoHi3MqYJBwv-23" value="" style="endArrow=none;html=1;rounded=0;exitX=0.5;exitY=0;exitDx=0;exitDy=0;entryX=1;entryY=0.5;entryDx=0;entryDy=0;entryPerimeter=0;" edge="1" parent="1" source="Bc5oG1DKQoHi3MqYJBwv-14" target="Bc5oG1DKQoHi3MqYJBwv-21">
          <mxGeometry width="50" height="50" relative="1" as="geometry">
            <mxPoint x="570" y="410" as="sourcePoint" />
            <mxPoint x="570" y="370" as="targetPoint" />
          </mxGeometry>
        </mxCell>
        <mxCell id="Bc5oG1DKQoHi3MqYJBwv-25" value="Коннектор с БД" style="shape=module;align=left;spacingLeft=20;align=center;verticalAlign=top;whiteSpace=wrap;html=1;" vertex="1" parent="1">
          <mxGeometry x="740" y="450" width="100" height="50" as="geometry" />
        </mxCell>
        <mxCell id="Bc5oG1DKQoHi3MqYJBwv-26" value="" style="shape=providedRequiredInterface;html=1;verticalLabelPosition=bottom;sketch=0;direction=west;" vertex="1" parent="1">
          <mxGeometry x="670" y="465" width="20" height="20" as="geometry" />
        </mxCell>
        <mxCell id="Bc5oG1DKQoHi3MqYJBwv-27" value="" style="endArrow=none;html=1;rounded=0;exitX=1;exitY=0.5;exitDx=0;exitDy=0;entryX=1;entryY=0.5;entryDx=0;entryDy=0;entryPerimeter=0;" edge="1" parent="1" target="Bc5oG1DKQoHi3MqYJBwv-26" source="Bc5oG1DKQoHi3MqYJBwv-14">
          <mxGeometry width="50" height="50" relative="1" as="geometry">
            <mxPoint x="610" y="475" as="sourcePoint" />
            <mxPoint x="545" y="460" as="targetPoint" />
          </mxGeometry>
        </mxCell>
        <mxCell id="Bc5oG1DKQoHi3MqYJBwv-28" value="" style="endArrow=none;html=1;rounded=0;exitX=0;exitY=0.5;exitDx=0;exitDy=0;entryX=0.103;entryY=0.496;entryDx=0;entryDy=0;entryPerimeter=0;exitPerimeter=0;" edge="1" parent="1" source="Bc5oG1DKQoHi3MqYJBwv-26" target="Bc5oG1DKQoHi3MqYJBwv-25">
          <mxGeometry width="50" height="50" relative="1" as="geometry">
            <mxPoint x="620" y="485" as="sourcePoint" />
            <mxPoint x="680" y="485" as="targetPoint" />
          </mxGeometry>
        </mxCell>
        <mxCell id="Bc5oG1DKQoHi3MqYJBwv-30" value="БД" style="shape=module;align=left;spacingLeft=20;align=center;verticalAlign=top;whiteSpace=wrap;html=1;" vertex="1" parent="1">
          <mxGeometry x="970" y="450" width="100" height="50" as="geometry" />
        </mxCell>
        <mxCell id="Bc5oG1DKQoHi3MqYJBwv-31" value="" style="shape=providedRequiredInterface;html=1;verticalLabelPosition=bottom;sketch=0;direction=west;" vertex="1" parent="1">
          <mxGeometry x="900" y="465" width="20" height="20" as="geometry" />
        </mxCell>
        <mxCell id="Bc5oG1DKQoHi3MqYJBwv-32" value="" style="endArrow=none;html=1;rounded=0;exitX=1;exitY=0.5;exitDx=0;exitDy=0;entryX=1;entryY=0.5;entryDx=0;entryDy=0;entryPerimeter=0;" edge="1" parent="1" target="Bc5oG1DKQoHi3MqYJBwv-31" source="Bc5oG1DKQoHi3MqYJBwv-25">
          <mxGeometry width="50" height="50" relative="1" as="geometry">
            <mxPoint x="840" y="475" as="sourcePoint" />
            <mxPoint x="775" y="460" as="targetPoint" />
          </mxGeometry>
        </mxCell>
        <mxCell id="Bc5oG1DKQoHi3MqYJBwv-33" value="" style="endArrow=none;html=1;rounded=0;exitX=0;exitY=0.5;exitDx=0;exitDy=0;entryX=0.103;entryY=0.496;entryDx=0;entryDy=0;entryPerimeter=0;exitPerimeter=0;" edge="1" parent="1" source="Bc5oG1DKQoHi3MqYJBwv-31" target="Bc5oG1DKQoHi3MqYJBwv-30">
          <mxGeometry width="50" height="50" relative="1" as="geometry">
            <mxPoint x="850" y="485" as="sourcePoint" />
            <mxPoint x="910" y="485" as="targetPoint" />
          </mxGeometry>
        </mxCell>
        <mxCell id="Bc5oG1DKQoHi3MqYJBwv-35" value="Работа с JWT токенами" style="shape=module;align=left;spacingLeft=20;align=center;verticalAlign=top;whiteSpace=wrap;html=1;" vertex="1" parent="1">
          <mxGeometry x="510" y="585" width="100" height="50" as="geometry" />
        </mxCell>
        <mxCell id="Bc5oG1DKQoHi3MqYJBwv-37" value="" style="shape=providedRequiredInterface;html=1;verticalLabelPosition=bottom;sketch=0;direction=north;" vertex="1" parent="1">
          <mxGeometry x="550" y="540" width="20" height="20" as="geometry" />
        </mxCell>
        <mxCell id="Bc5oG1DKQoHi3MqYJBwv-38" value="" style="endArrow=none;html=1;rounded=0;exitX=1;exitY=0.5;exitDx=0;exitDy=0;entryX=0.5;entryY=1;entryDx=0;entryDy=0;exitPerimeter=0;" edge="1" parent="1" source="Bc5oG1DKQoHi3MqYJBwv-37">
          <mxGeometry width="50" height="50" relative="1" as="geometry">
            <mxPoint x="390" y="625" as="sourcePoint" />
            <mxPoint x="560" y="500" as="targetPoint" />
          </mxGeometry>
        </mxCell>
        <mxCell id="Bc5oG1DKQoHi3MqYJBwv-39" value="" style="endArrow=none;html=1;rounded=0;exitX=0.5;exitY=0;exitDx=0;exitDy=0;entryX=0;entryY=0.5;entryDx=0;entryDy=0;entryPerimeter=0;" edge="1" parent="1" source="Bc5oG1DKQoHi3MqYJBwv-35" target="Bc5oG1DKQoHi3MqYJBwv-37">
          <mxGeometry width="50" height="50" relative="1" as="geometry">
            <mxPoint x="570" y="550" as="sourcePoint" />
            <mxPoint x="570" y="510" as="targetPoint" />
          </mxGeometry>
        </mxCell>
        <mxCell id="Bc5oG1DKQoHi3MqYJBwv-40" value="Коннектор с почтовым сервером" style="shape=module;align=left;spacingLeft=20;align=center;verticalAlign=top;whiteSpace=wrap;html=1;" vertex="1" parent="1">
          <mxGeometry x="740" y="585" width="100" height="50" as="geometry" />
        </mxCell>
        <mxCell id="Bc5oG1DKQoHi3MqYJBwv-41" value="" style="shape=providedRequiredInterface;html=1;verticalLabelPosition=bottom;sketch=0;direction=west;rotation=30;" vertex="1" parent="1">
          <mxGeometry x="660" y="520" width="20" height="20" as="geometry" />
        </mxCell>
        <mxCell id="Bc5oG1DKQoHi3MqYJBwv-42" value="" style="endArrow=none;html=1;rounded=0;exitX=1;exitY=0.5;exitDx=0;exitDy=0;entryX=1;entryY=1;entryDx=0;entryDy=0;exitPerimeter=0;" edge="1" parent="1" source="Bc5oG1DKQoHi3MqYJBwv-41" target="Bc5oG1DKQoHi3MqYJBwv-14">
          <mxGeometry width="50" height="50" relative="1" as="geometry">
            <mxPoint x="400" y="635" as="sourcePoint" />
            <mxPoint x="570" y="510" as="targetPoint" />
          </mxGeometry>
        </mxCell>
        <mxCell id="Bc5oG1DKQoHi3MqYJBwv-43" value="" style="endArrow=none;html=1;rounded=0;exitX=0.25;exitY=0;exitDx=0;exitDy=0;entryX=0;entryY=0.5;entryDx=0;entryDy=0;entryPerimeter=0;" edge="1" parent="1" target="Bc5oG1DKQoHi3MqYJBwv-41" source="Bc5oG1DKQoHi3MqYJBwv-40">
          <mxGeometry width="50" height="50" relative="1" as="geometry">
            <mxPoint x="570" y="595" as="sourcePoint" />
            <mxPoint x="580" y="520" as="targetPoint" />
          </mxGeometry>
        </mxCell>
      </root>
    </mxGraphModel>
  </diagram>
</mxfile>
